[IMG]http://img4.imageshack.us/img4/8184/corij.jpg[/IMG]
[code]
Coriolanus 2011 R5 CAM AUDIO XViD-26K

Imdb: 
http://www.imdb.com/title/tt1372686/

Plot:
A banished hero of Rome allies with a sworn enemy to take his revenge on the city.

Sources:
DVD9 -Russian --Thanks
Audio-INSPiRAL--Thanks

Notes:
ENCODED OF THE VOB FILES :) THEN MUXED THE CAM AUDIO ON TOT HE ENCODE!!!
THNXS TO INPIRAL FOR THE AUDIO :)

Greetz:
Xtreme 

Encode|FYA|ILLUMANTI|CM8|RX|VISION|HDSCENE|NIGHTMAREZ|xTriLL|DTRG|CRYS|REMIXHD|BIDA|RX|REFILL|INSPiRAL

|SIC|ZOMBIESZ|HOPE|Anonymous|GooN
To all the people who have helped me :P you know who you are

Anything to offer email us @: 26k@hushmail.me

Video
ID                                       : 0
Format                                   : MPEG-4 Visual
Format profile                           : Advanced Simple@L5
Format settings, BVOP                    : 2
Format settings, QPel                    : No
Format settings, GMC                     : No warppoints
Format settings, Matrix                  : Default (H.263)
Codec ID                                 : XVID
Codec ID/Hint                            : XviD
Duration                                 : 1h 58mn
Bit rate                                 : 1 700 Kbps
Width                                    : 720 pixels
Height                                   : 304 pixels
Display aspect ratio                     : 2.35:1
Frame rate                               : 25.000 fps
Color space                              : YUV
Chroma subsampling                       : 4:2:0
Bit depth                                : 8 bits
Scan type                                : Progressive
Compression mode                         : Lossy
Bits/(Pixel*Frame)                       : 0.311
Stream size                              : 1.40 GiB (88%)
Writing library                          : XviD 64

Audio
ID                                       : 1
Format                                   : AC-3
Format/Info                              : Audio Coding 3
Mode extension                           : CM (complete main)
Codec ID                                 : 2000
Duration                                 : 1h 58mn
Source duration                          : 1h 58mn
Bit rate mode                            : Constant
Bit rate                                 : 224 Kbps
Channel(s)                               : 2 channels
Channel positions                        : Front: L R
Sampling rate                            : 44.1 KHz
Bit depth                                : 16 bits
Compression mode                         : Lossy
Stream size                              : 189 MiB (12%)
Alignment                                : Aligned on interleaves
Interleave, duration                     : 35 ms (0.87 video frame)

[/code]
Screens:
[IMG]http://i.imgur.com/p1hYx.png[/IMG]
[IMG]http://i.imgur.com/L0ahh.png[/IMG]
[IMG]http://img201.imageshack.us/img201/5939/vlcsnap2012022600h36m47.png[/IMG]
[IMG]http://img11.imageshack.us/img11/7092/vlcsnap2012022600h36m50.png[/IMG]
[IMG]http://img694.imageshack.us/img694/2959/vlcsnap2012022600h36m54.png[/IMG]
[IMG]http://img341.imageshack.us/img341/3632/vlcsnap2012022600h36m57.png[/IMG]
[IMG]http://img443.imageshack.us/img443/1907/vlcsnap2012022600h37m04.png[/IMG]

[img]http://img851.imageshack.us/img851/5503/26ks.jpg[/img]
Thank you smallz for banner!